<svg width="42" height="13" viewBox="0 0 42 13" fill="none" xmlns="http://www.w3.org/2000/svg">
<path d="M2.728 5.84H8.104V7.92H2.728V5.84ZM2.92 12H0.328V0.799999H8.792V2.88H2.92V12ZM10.2145 12V3.392H12.5985V5.824L12.2625 5.12C12.5185 4.512 12.9292 4.05333 13.4945 3.744C14.0598 3.424 14.7478 3.264 15.5585 3.264V5.568C15.4518 5.55733 15.3558 5.552 15.2705 5.552C15.1852 5.54133 15.0945 5.536 14.9985 5.536C14.3158 5.536 13.7612 5.73333 13.3345 6.128C12.9185 6.512 12.7105 7.11467 12.7105 7.936V12H10.2145ZM21.0761 12.128C20.1588 12.128 19.3428 11.936 18.6281 11.552C17.9241 11.168 17.3641 10.6453 16.9481 9.984C16.5428 9.312 16.3401 8.54933 16.3401 7.696C16.3401 6.832 16.5428 6.06933 16.9481 5.408C17.3641 4.736 17.9241 4.21333 18.6281 3.84C19.3428 3.456 20.1588 3.264 21.0761 3.264C21.9828 3.264 22.7935 3.456 23.5081 3.84C24.2228 4.21333 24.7828 4.73067 25.1881 5.392C25.5935 6.05333 25.7961 6.82133 25.7961 7.696C25.7961 8.54933 25.5935 9.312 25.1881 9.984C24.7828 10.6453 24.2228 11.168 23.5081 11.552C22.7935 11.936 21.9828 12.128 21.0761 12.128ZM21.0761 10.08C21.4921 10.08 21.8655 9.984 22.1961 9.792C22.5268 9.6 22.7881 9.328 22.9801 8.976C23.1721 8.61333 23.2681 8.18667 23.2681 7.696C23.2681 7.19467 23.1721 6.768 22.9801 6.416C22.7881 6.064 22.5268 5.792 22.1961 5.6C21.8655 5.408 21.4921 5.312 21.0761 5.312C20.6601 5.312 20.2868 5.408 19.9561 5.6C19.6255 5.792 19.3588 6.064 19.1561 6.416C18.9641 6.768 18.8681 7.19467 18.8681 7.696C18.8681 8.18667 18.9641 8.61333 19.1561 8.976C19.3588 9.328 19.6255 9.6 19.9561 9.792C20.2868 9.984 20.6601 10.08 21.0761 10.08ZM38.4885 3.264C39.1712 3.264 39.7738 3.40267 40.2965 3.68C40.8298 3.94667 41.2458 4.36267 41.5445 4.928C41.8538 5.48267 42.0085 6.19733 42.0085 7.072V12H39.5125V7.456C39.5125 6.76267 39.3685 6.25067 39.0805 5.92C38.7925 5.58933 38.3872 5.424 37.8645 5.424C37.5018 5.424 37.1765 5.50933 36.8885 5.68C36.6005 5.84 36.3765 6.08533 36.2165 6.416C36.0565 6.74667 35.9765 7.168 35.9765 7.68V12H33.4805V7.456C33.4805 6.76267 33.3365 6.25067 33.0485 5.92C32.7712 5.58933 32.3712 5.424 31.8485 5.424C31.4858 5.424 31.1605 5.50933 30.8725 5.68C30.5845 5.84 30.3605 6.08533 30.2005 6.416C30.0405 6.74667 29.9605 7.168 29.9605 7.68V12H27.4645V3.392H29.8485V5.744L29.4005 5.056C29.6992 4.46933 30.1205 4.02667 30.6645 3.728C31.2192 3.41867 31.8485 3.264 32.5525 3.264C33.3418 3.264 34.0298 3.46667 34.6165 3.872C35.2138 4.26667 35.6085 4.87467 35.8005 5.696L34.9205 5.456C35.2085 4.784 35.6672 4.25067 36.2965 3.856C36.9365 3.46133 37.6672 3.264 38.4885 3.264Z" fill="#333333"/>
</svg>
