<svg width="41" height="28" viewBox="0 0 41 28" fill="none" xmlns="http://www.w3.org/2000/svg">
<path d="M14.7988 5.90276L19.7502 7.3322L25.1924 3.3797L17.3821 3.60359C17.3056 3.60776 17.2315 3.63148 17.1668 3.67248L14.6955 5.09331C14.6186 5.1359 14.5562 5.20058 14.5165 5.27898C14.4768 5.35738 14.4615 5.44589 14.4727 5.53307C14.4838 5.62025 14.5208 5.70209 14.579 5.76799C14.6371 5.8339 14.7137 5.88084 14.7988 5.90276Z" fill="#EAA121"/>
<path d="M39.1423 1.47665L33.7173 0.305541C33.2611 0.206492 32.7889 0.20675 32.3328 0.306298C31.8766 0.405846 31.4472 0.602354 31.0737 0.882485L14.6868 12.7917L10.7515 12.6194C10.5261 12.6118 10.304 12.6751 10.1165 12.8005C9.92904 12.9259 9.7857 13.107 9.70671 13.3182C9.62773 13.5295 9.6171 13.7602 9.67633 13.9779C9.73555 14.1955 9.86164 14.389 10.0368 14.5311L13.8687 17.5708C13.9318 17.6217 14.0069 17.6556 14.0868 17.6691C14.1667 17.6827 14.2488 17.6755 14.3251 17.6483C15.4187 17.2264 19.4918 15.065 24.3054 12.4214L25.2698 22.3328C25.278 22.4186 25.3095 22.5006 25.3608 22.5699C25.4122 22.6391 25.4815 22.6931 25.5612 22.7258C25.641 22.7586 25.7282 22.769 25.8134 22.7559C25.8986 22.7428 25.9787 22.7066 26.0448 22.6514L28.1976 20.8603C28.3155 20.7614 28.3947 20.6242 28.4215 20.4728L30.4623 9.0286C33.9068 7.11693 37.1962 5.26554 39.5126 3.95665C39.753 3.82585 39.9474 3.62431 40.0694 3.37935C40.1914 3.13438 40.2352 2.85783 40.1948 2.58716C40.1544 2.31649 40.0317 2.06479 39.8435 1.86615C39.6552 1.66751 39.4105 1.53153 39.1423 1.47665Z" fill="#EAA121"/>
<path d="M22.4168 17.4999C22.4168 17.4999 16.8596 23.3558 12.4168 22.9999C9.63005 22.7767 6.98616 22.625 7.41685 19.4999C7.74226 17.1388 9.91684 16.9999 11.4168 17.9999C14.1978 19.8539 13.6276 24.9548 10.4168 26.4999C7.09706 28.0975 3.99311 26.0434 1.91683 22.9999C0.606035 21.0786 0.87325 18.2131 1.64532 15.4999C2.75738 11.592 6.91682 8.99994 6.91682 8.99994" stroke="#EAA121" stroke-linecap="round" stroke-linejoin="round" stroke-dasharray="10 5"/>
</svg>
